# xmcd
#
# Track frame offsets: 
#        150
#        12799
#        25700
#        37766
#        50384
#        63555
#        77791
#        91383
#        107156
#        121442
#        135289
#        147894
#        161666
#        176273
#        189044
#        201603
#        213800
#        226310
#
# Disc length: 3204 seconds
#
# Revision: 0
# Processed by: cddbd v1.5.1PL0 Copyright (c) Steve Scherf et al.
# Submitted via: ExactAudioCopy v0.95a5
#
DISCID=e30c8212
DTITLE=Various Artist - Sugar In My Bowl
DYEAR=2004
DGENRE=Risque Blues
TTITLE0=Bessie Smith - I Need A Little Sugar In My Bowl
TTITLE1=Sister Rosetta Tharpe - I Want A Tall Skinny Papa
TTITLE2=Julia Lee - King Size Papa
TTITLE3=Lillie Mae Kirkman - He's Just My Size
TTITLE4=Mabel Scott - Just Give Me A Man
TTITLE5=Sippie Wallace - A Man For Every Day Of The Week
TTITLE6=Lil Johnson - Sam The Hot Dog Man
TTITLE7=Bessie Smith - Nobody In Town Can Bake A Sweet Jelly Roll Like
TTITLE7=Mine
TTITLE8=Lil Johnson - Hot Nuts (Get 'Em From The Peanut Man)
TTITLE9=Dinah Washington - My Lovin' Papa
TTITLE10=Sister Roretta Tharpe - Rock Me
TTITLE11=Sippie Wallace - I'm A Mighty Tight Woman
TTITLE12=Victoria Spivey - Garter Snake Blues
TTITLE13=Barrel House Annie - If It Don't Fit (Don't Force It)
TTITLE14=Albinia Jones - What's The Matter With Me?
TTITLE15=Connie Allen - Rocket 69
TTITLE16=Julia Lee - Gotta Gimme Watcha Got
TTITLE17=Lucille Bogan - Shave 'Em Dry (Version 2)
EXTD=
EXTT0=
EXTT1=
EXTT2=
EXTT3=
EXTT4=
EXTT5=
EXTT6=
EXTT7=
EXTT8=
EXTT9=
EXTT10=
EXTT11=
EXTT12=
EXTT13=
EXTT14=
EXTT15=
EXTT16=
EXTT17=
PLAYORDER=
